# xmcd
#
# Track frame offsets: 
#        150
#        62748
#        81840
#        99195
#        118312
#        145519
#        165448
#        191500
#        210837
#        228535
#        251479
#        277029
#        308824
#
# Disc length: 4547 seconds
#
# Revision: 13
# Processed by: cddbd v1.5.2PL0 Copyright (c) Steve Scherf et al.
# Submitted via: ExactAudioCopy v1.3
#
DISCID=aa11c10d
DTITLE=Nightwish - Dark Passion Play [Nuclear Blast - 27361 19230] Dis
DTITLE=c 1
DYEAR=2007
DGENRE=Metal
TTITLE0=The Poet and the Pendulum
TTITLE1=Bye Bye Beautiful
TTITLE2=Amaranth
TTITLE3=Cadence of Her Last Breath
TTITLE4=Master Passion Greed
TTITLE5=Eva
TTITLE6=Sahara
TTITLE7=Whoever Brings the Night
TTITLE8=For the Heart I Once Had
TTITLE9=The Islander
TTITLE10=Last of the Wilds
TTITLE11=7 Days to the Wolves
TTITLE12=Meadows of Heaven
EXTD=Tero Kinnunen
EXTT0=
EXTT1=
EXTT2=
EXTT3=
EXTT4=
EXTT5=
EXTT6=
EXTT7=
EXTT8=
EXTT9=
EXTT10=
EXTT11=
EXTT12=
PLAYORDER=
